<svg xmlns="http://www.w3.org/2000/svg" viewBox="0 0 50 50"><defs><style>.cls-1{fill:#50a135;}</style></defs><g id="石ログ"><path class="cls-1" d="M25.59,42.13c5.75-2,10.8-6.63,14.47-13.3l-5.6.46a22.33,22.33,0,0,1-5.54,5.54l-3.2-2.3A28.37,28.37,0,0,0,35,21.21l3.62,1.58c-.84,1.54-1.16,2.09-1.67,2.9l5-.33,2.73,2.92C41.16,36.17,34.49,43.23,28.5,45.46ZM44.46,23a19.93,19.93,0,0,1,2.89,3.73l-2,1.32a15.75,15.75,0,0,0-2.77-3.78Zm2.67-1.71a20.53,20.53,0,0,1,2.95,3.64l-2,1.41a16.73,16.73,0,0,0-2.88-3.75Z"/><path class="cls-1" d="M13.29,8.37a2.53,2.53,0,0,0,.31-1.15,1,1,0,0,0-.43.28A.72.72,0,0,0,13,8a.55.55,0,0,0,.14.3C13.18,8.32,13.26,8.38,13.29,8.37Zm8.1-.58.09-.88-1.09.17.15.81ZM7.25,9.1V8.61l-.88.12.07.46ZM17.3,7.77A2.5,2.5,0,0,0,17.8,7l-.15,0a2.19,2.19,0,0,1-.16.29l-.35-.16.05-.08-.37.07a1.38,1.38,0,0,1,0,.26l.49,0C17.3,7.53,17.3,7.56,17.3,7.77ZM10,7.75s0,.12,0,.43l.44,0,0-.45Zm6.2,2.09,12.26-.91-.31-4.39-26,2,.28,4.32,8.6-.63a32.73,32.73,0,0,1-11.11,13l3.9,2.9A30.83,30.83,0,0,0,8,22.28l.94,10.63h4.8l-.13-1.71,13.17-.49L27.9,17,11.38,18A54.65,54.65,0,0,0,16.19,9.84Zm6.55,11.53-.45,5.47-9.06.32L12.81,22ZM25.25,5.64a2.34,2.34,0,0,1,.36.35l-.19.18a1.75,1.75,0,0,0-.36-.36ZM25,5.86a2.5,2.5,0,0,1,.37.36l-.2.17A2.1,2.1,0,0,0,24.8,6Zm-1-.05.41.11a2.76,2.76,0,0,1-.14.34l.54-.11.33.28a3.59,3.59,0,0,1-1.49,2.06l-.36-.31A2.94,2.94,0,0,0,24.6,6.55l-.6.13a2.43,2.43,0,0,1-.51.67l-.38-.2A3,3,0,0,0,23.94,5.81Zm-3.64.77,0,.13L22,6.43l-.15,1.31.16,0,0,.39-1.43.16,0,.16-.42,0-.36-1.84Zm-4-.19.43-.09c0,.16.07.3.11.49l.35-.07,0,.29a3.07,3.07,0,0,0,.32-.84l.39.1c0,.13-.08.27-.13.4l.8-.13.06.36L17.92,7l.29.11L18,7.5v0a3,3,0,0,0,1,.81l-.26.37A3.46,3.46,0,0,1,18,8l.07.9-.4,0-.07-1-.12.13-.2-.2c0,1,0,1.06-.5,1.09l-.15-.38h.17c.07,0,.08,0,.09-.18a4.8,4.8,0,0,0,0-.69h-.16a3,3,0,0,1-.33,1.11l-.36-.23a2.53,2.53,0,0,0,.37-1.42l-.39.07,0-.37.43-.07A3.78,3.78,0,0,0,16.31,6.39Zm2.55,1a4.09,4.09,0,0,1-.47.46l-.27-.24a2.52,2.52,0,0,0,.38-.46Zm-5-.57a1.05,1.05,0,0,1,1.23,1,1.17,1.17,0,0,1-1,1.24l-.31-.32a1.4,1.4,0,0,0,.6-.29.67.67,0,0,0,.22-.62A.6.6,0,0,0,14,7.16a5,5,0,0,1-.28,1.31c-.1.27-.21.38-.36.39-.32,0-.77-.46-.79-.86C12.54,7.42,13.14,6.89,13.89,6.83ZM7.67,9.42,6.5,9.55l0,.15-.43,0L6,8.79a2.52,2.52,0,0,1-.35.37l-.36-.24a2.88,2.88,0,0,0,.91-1.23l-.77.11,0-.38,2.3-.34.06.39L6.6,7.63a5.36,5.36,0,0,1-.37.76l1.46-.2Zm3.29,0-.42,0-.06-1L10,8.54a2.18,2.18,0,0,1-.22.87l-.4-.15a1.75,1.75,0,0,0,.21-.68L9,8.66l0-.35.68-.08c0-.13,0-.23,0-.43l-.48.07,0-.35.5-.07c0-.08,0-.34-.05-.58l.41,0,0,.54.42-.06,0-.61.41,0,.05.58.47-.06.05.35-.5.07,0,.45L11.61,8l0,.35-.76.09Z"/></g></svg>