<svg xmlns="http://www.w3.org/2000/svg" viewBox="0 0 364 605"><defs><style>.cls-1{fill:#fff;}</style></defs><g id="石ログ"><path class="cls-1" d="M186.26,410.89c41.7-14.38,78.32-48.12,105-96.5l-40.61,3.36C236.7,336.35,223.09,350,210.46,358l-23.25-16.72c26-17.23,49.74-46.32,67-82.09l26.29,11.46c-6.12,11.13-8.47,15.17-12.18,21l36.57-2.35,19.83,21.11C299.23,367.63,250.86,418.86,207.37,435ZM323.14,272a143.79,143.79,0,0,1,20.93,27l-14.61,9.56c-6.41-11.49-12.77-20.25-20.08-27.4Zm19.39-12.41c7.51,7.17,14.31,15.75,21.39,26.44l-14.23,10.22c-7.22-12-13.22-19.87-20.92-27.25Z"/><path class="cls-1" d="M97.1,166.05c.59,0,1.7-4.21,2.25-8.35a6.87,6.87,0,0,0-3.14,2A5,5,0,0,0,94.86,163a3.81,3.81,0,0,0,1,2.17A2.81,2.81,0,0,0,97.1,166.05Zm58.7-4.24.64-6.4-7.86,1.29,1,5.86Zm-29.67-.1a18.18,18.18,0,0,0,3.67-5.39l-1.08.16a14.66,14.66,0,0,1-1.21,2.08L125,157.4l.37-.59-2.68.48c0,.68-.06.91-.14,1.89l3.55-.25C126.14,159.92,126.13,160.15,126.13,161.71Zm-72.85,9.64,0-3.55-6.39.83.5,3.33Zm19.88-9.85s0,.88.15,3.14l3.17-.38-.23-3.2Zm44.93,15.18,89-6.57-2.27-31.84L16.25,152.68l2,31.33,62.42-4.55C61.74,218.63,32.42,253,.08,274l28.3,21c10.11-7.58,19.46-16.42,30.07-28.05L65.28,344h34.87l-1-12.38,95.53-3.54L203,228.24,83.22,236.07A394.11,394.11,0,0,0,118.09,176.68Zm47.51,83.65L162.32,300l-65.71,2.27-3-37.65Zm18.18-114.1a16.36,16.36,0,0,1,2.67,2.53l-1.38,1.3a13.23,13.23,0,0,0-2.63-2.62Zm-1.9,1.61a15,15,0,0,1,2.63,2.6l-1.43,1.23a12.71,12.71,0,0,0-2.54-2.65Zm-7.56-.4,3,.85c-.5,1.28-.69,1.75-1,2.43l3.88-.77,2.43,2c-1.92,6.49-6.38,12.66-10.81,15l-2.6-2.28c4.26-2.13,7.71-6.26,9.88-11.82l-4.31.93a17.53,17.53,0,0,1-3.73,4.88l-2.72-1.46A22.29,22.29,0,0,0,174.32,147.44ZM148,153.06l.15.92,12-2L159,161.42l1.14-.14.31,2.82-10.37,1.16.19,1.14-3,.21-2.58-13.32Zm-29-1.41,3.13-.63c.3,1.16.53,2.16.79,3.52l2.59-.45.28,2.11a22.9,22.9,0,0,0,2.27-6.11l2.87.7c-.27,1-.61,2-1,2.92l5.84-1,.41,2.64-5.51.79,2.07.81c-.61,1-1,1.77-1.67,2.72l0,.29a21.52,21.52,0,0,0,7.58,5.85l-1.94,2.71a25.41,25.41,0,0,1-5.39-4.94l.46,6.53-2.89.2-.5-7.16-.86,1-1.43-1.46c-.12,7.45-.24,7.66-3.66,7.92l-1-2.8a6.68,6.68,0,0,0,1.2.08c.47,0,.57-.22.68-1.27a43.51,43.51,0,0,0,.22-5l-1.22.08a21.73,21.73,0,0,1-2.38,8l-2.58-1.68c1.69-2.6,2.23-4.63,2.69-10.32l-2.81.49-.37-2.62,3.11-.56A30.18,30.18,0,0,0,119,151.65ZM137.47,159a25.09,25.09,0,0,1-3.41,3.34l-2-1.69a18.25,18.25,0,0,0,2.82-3.37Zm-36-4.08c5-.35,8.58,2.45,8.89,6.89s-2.08,7.43-7.06,8.93L101,168.42a10.19,10.19,0,0,0,4.36-2.13,4.87,4.87,0,0,0,1.56-4.46c-.2-2.9-1.66-4.36-4.55-4.54a39,39,0,0,1-2.05,9.48c-.72,1.91-1.48,2.73-2.58,2.81-2.35.16-5.58-3.34-5.78-6.27C91.67,159.12,96,155.27,101.44,154.89Zm-45.1,18.76-8.49.91.17,1.1-3.11.22-1.09-6.83a19.49,19.49,0,0,1-2.5,2.69l-2.65-1.69a21.29,21.29,0,0,0,6.59-8.93l-5.53.8-.38-2.78,16.71-2.46.4,2.82-7.89,1.14a34.91,34.91,0,0,1-2.73,5.51l10.62-1.44Zm23.81.12-3,.21-.5-7.13-3.39.39a16.93,16.93,0,0,1-1.55,6.31l-2.93-1.09a11.93,11.93,0,0,0,1.52-4.88l-4.49.54-.27-2.53,4.87-.59c0-.93,0-1.67-.15-3.12l-3.49.5-.34-2.51,3.63-.53c-.06-.54-.21-2.42-.36-4.16l3-.21.27,4,3.09-.45-.31-4.43,3-.21.29,4.23,3.41-.49.38,2.56-3.61.5.23,3.24,5.41-.65.34,2.58-5.57.66Z"/><path class="cls-1" d="M24.56,460.15a17.52,17.52,0,0,1-2.41,2.25l-2.28-1.68a19.11,19.11,0,0,0,6.48-7.6l-5,.37L21.17,451l15.15-1.16.18,2.56-7.14.53a31.71,31.71,0,0,1-2.81,4.77l9.63-.63-.67,8-7.68.29.08,1h-2.8Zm2.83-.18.24,3,5.28-.18.26-3.19Z"/><path class="cls-1" d="M57.24,460.23l-3.07.14a15,15,0,0,1-1.79,5.57l-2.55-1.16a10.69,10.69,0,0,0,1.66-4.28l-4.06.2-.08-2.3,4.41-.22c0-.83.06-1.5.06-2.8l-3.17.22-.14-2.27,3.29-.25c0-.49,0-2.19-.06-3.76h2.7v3.58l2.8-.2v-4h2.7v3.81l3.09-.22.18,2.31-3.27.23v2.92l4.89-.24.15,2.33-5,.25v6.58h-2.7Zm0-2.33V455l-2.8.2s0,.8-.06,2.83Z"/><path class="cls-1" d="M82.06,463.18a9.26,9.26,0,0,0,4-1.65,4.36,4.36,0,0,0,1.68-3.9c0-2.62-1.22-4-3.79-4.37a35.47,35.47,0,0,1-2.44,8.39c-.77,1.67-1.51,2.36-2.5,2.36-2.11,0-4.79-3.35-4.79-6,0-3.78,4.12-7,9-7,4.49,0,7.56,2.74,7.56,6.74s-2.34,6.54-6.91,7.58Zm-3.76-8.13a4.52,4.52,0,0,0-1.42,2.89,3.37,3.37,0,0,0,.75,2,2.41,2.41,0,0,0,1.07.85c.53,0,1.79-3.68,2.54-7.35A6.11,6.11,0,0,0,78.3,455.05Z"/><path class="cls-1" d="M110,460.21l-.83.81-1.2-1.4c-.57,6.68-.69,6.87-3.78,6.89l-.77-2.58a5.93,5.93,0,0,0,1.08.14c.42,0,.53-.16.69-1.1a41.72,41.72,0,0,0,.51-4.49h-1.1a19.41,19.41,0,0,1-2.64,7.07l-2.21-1.66c1.68-2.24,2.29-4,3.06-9.1l-2.56.26-.16-2.37,2.82-.31a25.5,25.5,0,0,0-.67-3.13l2.85-.36c.2,1.05.34,2,.48,3.21l2.36-.25.12,1.91a20.38,20.38,0,0,0,2.42-5.34l2.54.81c-.31.84-.67,1.75-1.06,2.56l5.3-.49.21,2.4-5,.37,1.81.85c-.61.89-1,1.52-1.67,2.34v.26a19.42,19.42,0,0,0,6.44,5.73l-1.91,2.31a22.84,22.84,0,0,1-4.53-4.77v5.89H110Zm-1.79-4c0,.89-.06,1.1-.16,2.5a16.32,16.32,0,0,0,3.64-4.61l-1,.08a13.8,13.8,0,0,1-1.22,1.79l-2.17-1.2.37-.51-2.44.26c-.08.61-.1.82-.25,1.69Zm10.2.75a22.1,22.1,0,0,1-3.27,2.78l-1.69-1.64a16.91,16.91,0,0,0,2.75-2.84Z"/><path class="cls-1" d="M128.34,452.33h2.94l.08.83,10.91-1.05-1.56,8.43,1-.07.1,2.56-9.38.39.1,1h-2.74Zm9.44,8.35,1-5.71-7.13.67.57,5.32Z"/><path class="cls-1" d="M152.69,464.07c4-1.65,7.31-5.14,9.6-10l-3.91.57a15.9,15.9,0,0,1-3.66,4.14l-2.36-1.48a20.09,20.09,0,0,0,6-8.37l2.62.95c-.53,1.12-.74,1.53-1.06,2.11l3.53-.44,2.05,1.93c-2.13,5.71-6.52,11-10.64,12.79Zm12.45-14.3a13.86,13.86,0,0,1,2.19,2.5l-1.36,1a11.34,11.34,0,0,0-2.11-2.54Zm1.81-1.32a14.52,14.52,0,0,1,2.23,2.44L167.86,452a12.15,12.15,0,0,0-2.19-2.51Z"/><path class="cls-1" d="M179.17,461.14a22.48,22.48,0,0,1,3.35,3.8l-2.07,1.79a24.17,24.17,0,0,0-3.21-3.9Z"/><path class="cls-1" d="M204.21,461.25l-.81.48-1-1.19,0,3.61h-1.85l0-.83-3,.18,0,.65h-1.89l-.34-13.55h1.91l0,.53,5.18-.57-.05,3.6a12.82,12.82,0,0,0,3.7-5.75l2.3.71c-.13.31-.19.47-.29.67l-.3.65,2.6-.34,1.46,1a24.17,24.17,0,0,1-2.52,5.12,23.85,23.85,0,0,0,4.9,3l-1.1,2.46-.57-.36-.53-.35-.32,4.75-4.92.21.06.75H204.6Zm-5.93-5.14V453.3l-.89.09.08,2.78Zm0,5.12v-3l-.77.06.08,3Zm1.54-8.09V456l.88-.09,0-2.84Zm.78,7.92.06-3-.84.08v3Zm1.88-6.33,0,4.71a12.55,12.55,0,0,0,4.11-3.07,12,12,0,0,1-1-1l-.47-.47a11.83,11.83,0,0,1-1.26,1.28Zm4.17-2-.37.55a18.4,18.4,0,0,0,1.47,1.48,10.46,10.46,0,0,0,1.19-2.36Zm3.39,6.68c-1-.79-1.44-1.16-1.87-1.54a12,12,0,0,1-1.75,1.74Zm-3.45,2.27.14,2.07,2.88-.1.13-2.11Z"/><path class="cls-1" d="M227.34,450a1.49,1.49,0,0,1,.53,1.22,19.87,19.87,0,0,1-.2,2.36,67.83,67.83,0,0,0-.47,7.51c0,1.57.37,2,1.77,2a8.86,8.86,0,0,0,6.46-3.1l.65,3a10.89,10.89,0,0,1-7.32,3c-3.16,0-4.4-1.2-4.4-4.31,0-1.54,0-1.54.46-9.26,0-.22,0-.41,0-.57a1.92,1.92,0,0,0-.79-1.83Z"/><path class="cls-1" d="M255.39,466.26c-3.07-1.5-4.51-3.49-4.51-6.23,0-2,.85-4,2.66-6.22-4.83,1-6.17,1.26-8.31,1.77l-.69-2.84c2.42-.33,5-.78,7-1.18,1.58-.33,3.11-.63,4.61-.92l2.4-.46,1,2.43-1.93.39c-2.68,2.42-4,4.71-4,6.82,0,1.69,1,2.67,3.92,3.76Z"/><path class="cls-1" d="M273.34,460.15a17,17,0,0,1-2.42,2.25l-2.27-1.68a19.19,19.19,0,0,0,6.48-7.6l-5,.37L270,451l15.15-1.16.18,2.56-7.15.53a30.86,30.86,0,0,1-2.8,4.77L285,457l-.67,8-7.68.29.08,1h-2.8Zm2.82-.18.25,3,5.28-.18.26-3.19Z"/><path class="cls-1" d="M296.73,452.33h2.95l.08.83,10.91-1.05-1.57,8.43,1-.07.1,2.56-9.38.39.1,1h-2.74Zm9.45,8.35,1-5.71-7.12.67.56,5.32Z"/><path class="cls-1" d="M321.08,464.07c4-1.65,7.32-5.14,9.61-10l-3.92.57a16.07,16.07,0,0,1-3.65,4.14l-2.36-1.48a20,20,0,0,0,6-8.37l2.62.95c-.53,1.12-.73,1.53-1.06,2.11l3.54-.44,2.05,1.93c-2.13,5.71-6.52,11-10.64,12.79Zm12.45-14.3a13.52,13.52,0,0,1,2.2,2.5l-1.36,1a11.1,11.1,0,0,0-2.12-2.54Zm1.81-1.32a15,15,0,0,1,2.24,2.44L336.26,452a12.47,12.47,0,0,0-2.2-2.51Z"/></g></svg>