<svg xmlns="http://www.w3.org/2000/svg" xmlns:xlink="http://www.w3.org/1999/xlink" viewBox="0 0 109.32 172"><defs><style>.cls-1{fill:none;}.cls-2{clip-path:url(#clip-path);}.cls-3{fill:#50a135;}.cls-4{fill:#3e3a39;}</style><clipPath id="clip-path"><rect class="cls-1" x="-137.25" y="-613.63" width="1080" height="563"/></clipPath></defs><g id="石ログ"><g class="cls-2"><image width="3508" height="2480" transform="translate(69.24 -396.27) rotate(-7.59) scale(0.23)" xlink:href="../../../../../Ai/%E3%82%A4%E3%82%B7%E3%82%A4%E3%81%AE%E6%97%85%E3%83%AD%E3%82%B0/01)%E5%85%A8%E6%97%A5%E7%A8%8B.jpg"/></g></g><g id="指示レイヤー"><path class="cls-3" d="M60.64,27.32A46,46,0,0,0,57.24,23V37.31H52.56v-13a34.09,34.09,0,0,1-3.84,3.52,18.89,18.89,0,0,0-2.44-4.32A35.3,35.3,0,0,0,56.52,11.32H47.4V7h5.16V0h4.68V7H59l.76-.2L62.4,8.6a44.51,44.51,0,0,1-4.92,9.48l1.08,1a36.12,36.12,0,0,0,2.88-4.44l3,2.52c-1.4,1.36-2.64,2.8-3.72,3.92,1.2,1.16,2.28,2.2,2.72,2.68ZM83.35,3s0,1.76,0,2.4c-.36,20-.72,27-2.28,29.11A4.72,4.72,0,0,1,77.48,37a32.37,32.37,0,0,1-5.8.2,12.21,12.21,0,0,0-1.48-4.92c2.08.16,4,.16,4.92.16a1.59,1.59,0,0,0,1.48-.76c1.11-1.32,1.56-7.75,1.83-24.11H72.64c-.32,11.56-1.4,23.08-10.32,29.83a15.69,15.69,0,0,0-3.52-3.76c8.2-5.75,8.8-15.87,9-26.07H62V3Z"/><path class="cls-3" d="M55,59.16c-.6,5.48-1.64,11.6-4.28,15.51l-4.44-2.55c2.36-3.44,3.52-8.6,4-13.92Zm7.44-3.8v19c0,1.92.28,2.2,2.16,2.2H70c2,0,2.28-1.24,2.56-7.51A14.52,14.52,0,0,0,77,71.12c-.52,7.43-1.8,9.79-6.6,9.79H63.92c-5.08,0-6.48-1.56-6.48-6.56v-19ZM60.64,44.08A59.12,59.12,0,0,1,74,51l-3.12,4.2A53.45,53.45,0,0,0,57.56,47.8ZM77.55,56.6A42.75,42.75,0,0,1,84.79,71L80,73.4c-.8-4.08-3.6-10.2-6.8-14.6Z"/><path class="cls-3" d="M69,104.24c-1.56,1.12-3.08,2.16-4.72,3.2H78.83v17.75h-5v-1H60.08v1.2H55.32V112.27c-2,.88-4.08,1.76-6.12,2.52a25.32,25.32,0,0,0-2.88-3.91,70.87,70.87,0,0,0,14.84-6.64H47.56V100H60.4V96.4H51V92.28h9.4V88h4.72v4.32H73.8v2a50,50,0,0,0,4.12-5.08L82,91.24a58.44,58.44,0,0,1-7.87,8.8h9.27v4.2Zm4.84,7.08H60.08v2.56H73.84Zm0,8.87v-2.72H60.08v2.72ZM65.12,100h2.2a54.62,54.62,0,0,0,4.32-3.64H65.12Z"/><path class="cls-3" d="M37.47,7.44a64,64,0,0,1-5.15,4.08A28,28,0,0,0,38.59,15a17,17,0,0,0-3.16,4,28.52,28.52,0,0,1-8.55-6v1.64H12.16V13.2a35.17,35.17,0,0,1-9,6.32A16.9,16.9,0,0,0,.28,16,27.87,27.87,0,0,0,7,11.92,27.87,27.87,0,0,0,2.76,8.56L5.36,6A24.15,24.15,0,0,1,9.88,9.2a25.17,25.17,0,0,0,3-4H4.68V1.4H15.16l.8-.2L19,2.8a26.93,26.93,0,0,1-4.52,7.8H24.8a38.63,38.63,0,0,1-5.48-9.24L23.4.08a25.91,25.91,0,0,0,2.12,4,33.48,33.48,0,0,0,4-3.8l3.6,2.56C31.4,4.32,29.4,5.84,27.64,7c.6.72,1.24,1.4,1.88,2A35.07,35.07,0,0,0,34,5ZM29,28.24c-.84,1.64-1.64,3.2-2.32,4.35h10v3.92H2.36V32.59H12a19.07,19.07,0,0,0-1.84-4.15l2.08-.52H7.92V16.84H31.08V27.92h-3.6ZM12.52,24.16H26.16V20.6H12.52Zm2.4,3.76a16.38,16.38,0,0,1,1.92,4.23l-1.52.44H23.2l-1.08-.24a38.7,38.7,0,0,0,2.08-4.43Z"/><path class="cls-3" d="M35.83,53.56V80.71H30.88V78.19H8.16v2.64H3.28V53.64H8.16V73.28h8.68V45h5V73.28h9.08V53.56Z"/><path class="cls-3" d="M.8,94.56H17.16v3.76H.8Zm14.64,28.63H6.72v1.56H2.6V111.12H15.44ZM2.72,100.12H15.56v3.64H2.72Zm0,5.48H15.56v3.56H2.72Zm13-12.8H3V89.2H15.68Zm-9,22.08v4.6h4.56v-4.6Zm24.83,5.59c1.8,0,2.08-.92,2.37-5.91a14.1,14.1,0,0,0,4.39,1.84c-.6,6.63-1.88,8.55-6.39,8.55h-6.6c-5,0-6.52-1.32-6.52-6.43V102.84H31.44V94.48H18.72V90H36.19v19.36H31.44v-2h-7.8v11.16c0,1.67.32,2,2.2,2Z"/><path class="cls-3" d="M16.12,162.4c2-1.16,4.64-2.84,7.24-4.56l1.44,3.6c-2.36,1.79-4.92,3.63-7.2,5.19l-1.32-2.28.12,1.16c-5,1-10.24,2.16-14.28,2.92l-.88-4.32c1.68-.23,3.68-.56,5.88-.92V152.76H1.68v-4H7.12v-2.92H3.6V144c-.24.24-.52.48-.76.72A13,13,0,0,0,0,141.68,25.56,25.56,0,0,0,6.92,132h3.92a39.75,39.75,0,0,1,6.68,6.88l-2.52,3h.36v4H11.24v2.92h5v4h-5v9.68l4.8-.84Zm-11-8.12a45.69,45.69,0,0,1,1.4,6.88l-3.2.88a36.4,36.4,0,0,0-1.24-7Zm9-12.4a37.19,37.19,0,0,0-4.56-5.48,37.8,37.8,0,0,1-3.88,5.48Zm-2.4,18.56a49,49,0,0,0,1.4-6.48l3.44.84c-.72,2.24-1.36,4.8-2,6.44Zm19.8-4.52a18.33,18.33,0,0,0,7.31,7.43,17.67,17.67,0,0,0-3,3.92,20.08,20.08,0,0,1-6.55-7.71v5.23c0,2-.28,3.12-1.52,3.76s-2.8.76-5,.76a16.24,16.24,0,0,0-1.12-4.12c1.12.08,2.32,0,2.72,0s.56-.12.56-.52V149H16.56v-4H30.48v-2H19.36v-3.6H30.48V137.2h-12v-3.92h16.4V145h2.95v4H29.2v1.32a26.79,26.79,0,0,0,1.63,4.28,32.67,32.67,0,0,0,3.6-4.8l3.72,2.28c-1.6,1.84-3.4,3.72-4.8,5Zm-11.6-5.48a19.54,19.54,0,0,1,4.12,5l-3.32,2.2a22.87,22.87,0,0,0-3.92-5.24Z"/><path class="cls-4" d="M60.64,27.32A46,46,0,0,0,57.24,23V37.31H52.56v-13a34.09,34.09,0,0,1-3.84,3.52,18.89,18.89,0,0,0-2.44-4.32A35.3,35.3,0,0,0,56.52,11.32H47.4V7h5.16V0h4.68V7H59l.76-.2L62.4,8.6a44.51,44.51,0,0,1-4.92,9.48l1.08,1a36.12,36.12,0,0,0,2.88-4.44l3,2.52c-1.4,1.36-2.64,2.8-3.72,3.92,1.2,1.16,2.28,2.2,2.72,2.68ZM83.35,3s0,1.76,0,2.4c-.36,20-.72,27-2.28,29.11A4.72,4.72,0,0,1,77.48,37a32.37,32.37,0,0,1-5.8.2,12.21,12.21,0,0,0-1.48-4.92c2.08.16,4,.16,4.92.16a1.59,1.59,0,0,0,1.48-.76c1.11-1.32,1.56-7.75,1.83-24.11H72.64c-.32,11.56-1.4,23.08-10.32,29.83a15.69,15.69,0,0,0-3.52-3.76c8.2-5.75,8.8-15.87,9-26.07H62V3Z"/><path class="cls-4" d="M55,59.16c-.6,5.48-1.64,11.6-4.28,15.51l-4.44-2.55c2.36-3.44,3.52-8.6,4-13.92Zm7.44-3.8v19c0,1.92.28,2.2,2.16,2.2H70c2,0,2.28-1.24,2.56-7.51A14.52,14.52,0,0,0,77,71.12c-.52,7.43-1.8,9.79-6.6,9.79H63.92c-5.08,0-6.48-1.56-6.48-6.56v-19ZM60.64,44.08A59.12,59.12,0,0,1,74,51l-3.12,4.2A53.45,53.45,0,0,0,57.56,47.8ZM77.55,56.6A42.75,42.75,0,0,1,84.79,71L80,73.4c-.8-4.08-3.6-10.2-6.8-14.6Z"/><path class="cls-4" d="M69,104.24c-1.56,1.12-3.08,2.16-4.72,3.2H78.83v17.75h-5v-1H60.08v1.2H55.32V112.27c-2,.88-4.08,1.76-6.12,2.52a25.32,25.32,0,0,0-2.88-3.91,70.87,70.87,0,0,0,14.84-6.64H47.56V100H60.4V96.4H51V92.28h9.4V88h4.72v4.32H73.8v2a50,50,0,0,0,4.12-5.08L82,91.24a58.44,58.44,0,0,1-7.87,8.8h9.27v4.2Zm4.84,7.08H60.08v2.56H73.84Zm0,8.87v-2.72H60.08v2.72ZM65.12,100h2.2a54.62,54.62,0,0,0,4.32-3.64H65.12Z"/><path class="cls-4" d="M37.47,7.44a64,64,0,0,1-5.15,4.08A28,28,0,0,0,38.59,15a17,17,0,0,0-3.16,4,28.52,28.52,0,0,1-8.55-6v1.64H12.16V13.2a35.17,35.17,0,0,1-9,6.32A16.9,16.9,0,0,0,.28,16,27.87,27.87,0,0,0,7,11.92,27.87,27.87,0,0,0,2.76,8.56L5.36,6A24.15,24.15,0,0,1,9.88,9.2a25.17,25.17,0,0,0,3-4H4.68V1.4H15.16l.8-.2L19,2.8a26.93,26.93,0,0,1-4.52,7.8H24.8a38.63,38.63,0,0,1-5.48-9.24L23.4.08a25.91,25.91,0,0,0,2.12,4,33.48,33.48,0,0,0,4-3.8l3.6,2.56C31.4,4.32,29.4,5.84,27.64,7c.6.72,1.24,1.4,1.88,2A35.07,35.07,0,0,0,34,5ZM29,28.24c-.84,1.64-1.64,3.2-2.32,4.35h10v3.92H2.36V32.59H12a19.07,19.07,0,0,0-1.84-4.15l2.08-.52H7.92V16.84H31.08V27.92h-3.6ZM12.52,24.16H26.16V20.6H12.52Zm2.4,3.76a16.38,16.38,0,0,1,1.92,4.23l-1.52.44H23.2l-1.08-.24a38.7,38.7,0,0,0,2.08-4.43Z"/><path class="cls-4" d="M35.83,53.56V80.71H30.88V78.19H8.16v2.64H3.28V53.64H8.16V73.28h8.68V45h5V73.28h9.08V53.56Z"/><path class="cls-4" d="M.8,94.56H17.16v3.76H.8Zm14.64,28.63H6.72v1.56H2.6V111.12H15.44ZM2.72,100.12H15.56v3.64H2.72Zm0,5.48H15.56v3.56H2.72Zm13-12.8H3V89.2H15.68Zm-9,22.08v4.6h4.56v-4.6Zm24.83,5.59c1.8,0,2.08-.92,2.37-5.91a14.1,14.1,0,0,0,4.39,1.84c-.6,6.63-1.88,8.55-6.39,8.55h-6.6c-5,0-6.52-1.32-6.52-6.43V102.84H31.44V94.48H18.72V90H36.19v19.36H31.44v-2h-7.8v11.16c0,1.67.32,2,2.2,2Z"/><path class="cls-4" d="M16.12,162.4c2-1.16,4.64-2.84,7.24-4.56l1.44,3.6c-2.36,1.79-4.92,3.63-7.2,5.19l-1.32-2.28.12,1.16c-5,1-10.24,2.16-14.28,2.92l-.88-4.32c1.68-.23,3.68-.56,5.88-.92V152.76H1.68v-4H7.12v-2.92H3.6V144c-.24.24-.52.48-.76.72A13,13,0,0,0,0,141.68,25.56,25.56,0,0,0,6.92,132h3.92a39.75,39.75,0,0,1,6.68,6.88l-2.52,3h.36v4H11.24v2.92h5v4h-5v9.68l4.8-.84Zm-11-8.12a45.69,45.69,0,0,1,1.4,6.88l-3.2.88a36.4,36.4,0,0,0-1.24-7Zm9-12.4a37.19,37.19,0,0,0-4.56-5.48,37.8,37.8,0,0,1-3.88,5.48Zm-2.4,18.56a49,49,0,0,0,1.4-6.48l3.44.84c-.72,2.24-1.36,4.8-2,6.44Zm19.8-4.52a18.33,18.33,0,0,0,7.31,7.43,17.67,17.67,0,0,0-3,3.92,20.08,20.08,0,0,1-6.55-7.71v5.23c0,2-.28,3.12-1.52,3.76s-2.8.76-5,.76a16.24,16.24,0,0,0-1.12-4.12c1.12.08,2.32,0,2.72,0s.56-.12.56-.52V149H16.56v-4H30.48v-2H19.36v-3.6H30.48V137.2h-12v-3.92h16.4V145h2.95v4H29.2v1.32a26.79,26.79,0,0,0,1.63,4.28,32.67,32.67,0,0,0,3.6-4.8l3.72,2.28c-1.6,1.84-3.4,3.72-4.8,5Zm-11.6-5.48a19.54,19.54,0,0,1,4.12,5l-3.32,2.2a22.87,22.87,0,0,0-3.92-5.24Z"/><path class="cls-3" d="M106.13,3.68V6.31H104.7V4.88H97.24V6.31H95.88V3.68h4.33V3h1.47v.68ZM96.72,9.76h8.57v4.4h-1.41v-.25H98.05v.28H96.72Zm.82-2.94h6.93v2.5H97.54Zm6.68-1.41v1H97.73v-1Zm-6.17,5.38v.58h2.19v-.58Zm2.19,2.09v-.61H98.05v.61ZM98.83,8.39h4.26V7.76H98.83Zm5,2.4h-2.26v.58h2.26Zm0,2.09v-.61h-2.26v.61Z"/><path class="cls-3" d="M101.74,21.2v4.23h4.07v1.43H96.23V25.43h4V21.2H95.58V19.78h4.62V16.22h1.54v3.56h4.71V21.2Z"/><path class="cls-3" d="M105.89,32.27v8.15H104.4v-.76H97.59v.79H96.12V32.3h1.47v5.89h2.6V29.72h1.49v8.47h2.72V32.27Z"/><path class="cls-3" d="M102.65,43.76l1.23-1a22.2,22.2,0,0,1,2.57,2.56l-1.26,1.08A22.35,22.35,0,0,0,102.65,43.76Z"/><path class="cls-3" d="M102.32,54a12,12,0,0,0,4.44,4.59,5.53,5.53,0,0,0-1.07,1.24,13.18,13.18,0,0,1-3.94-4.23V61h-1.53V55.65a12.66,12.66,0,0,1-4,4.22,7.26,7.26,0,0,0-1.07-1.22A11.38,11.38,0,0,0,99.6,54H95.75V52.58h4.47V49.8h1.53v2.78h4.5V54Z"/><path class="cls-3" d="M105.56,64.42v4.49h-9.2V64.42h1.83a5,5,0,0,0-.75-1.1l1.3-.4a4.64,4.64,0,0,1,.94,1.38l-.33.12h3.24l-.31-.08a8.64,8.64,0,0,0,.94-1.44l1.53.35a14.43,14.43,0,0,1-1,1.17Zm-8.33,5h7.46v4.69h-1.53v-.28H98.68v.33H97.23Zm.51-3.3h2.51v-.62H97.74Zm0,1.64h2.51v-.62H97.74Zm.94,2.75v.61h4.48v-.61Zm4.48,2.22v-.6H98.68v.6Zm1-7.23h-2.48v.62h2.48Zm0,1.64h-2.48v.62h2.48Z"/><path class="cls-3" d="M95.22,86.35a5.3,5.3,0,0,0,.61-2.63l.8.15a5.73,5.73,0,0,1-.69,2.88Zm5.35-4.28s0,.32,0,.47c-.12,2.9-.23,4-.53,4.38a.92.92,0,0,1-.7.42,5,5,0,0,1-1.06,0,3,3,0,0,0-.29-1.1,5.56,5.56,0,0,0,.73,0,.35.35,0,0,0,.32-.15,2.59,2.59,0,0,0,.21-1l-.36.13a6.78,6.78,0,0,0-.54-1.54l.57-.2a9.4,9.4,0,0,1,.39.92c0-.35,0-.77.06-1.26H95.92V76.63h4.41v1.15H99v.7h1.1v1.08H99v.7h1.1v1.07H99v.74Zm-3.22,1.81a11.35,11.35,0,0,1,.13,2.2l-.65.08a12.21,12.21,0,0,0-.1-2.22Zm-.26-6.1v.7h.77v-.7Zm.77,1.78h-.77v.7h.77Zm-.77,2.51h.77v-.74h-.77Zm1.06,1.68a10.56,10.56,0,0,1,.4,1.93l-.64.13a9.58,9.58,0,0,0-.36-1.94Zm8.18-5.11c-.08,5.57-.17,7.49-.56,8.09a1.31,1.31,0,0,1-1,.62,9.67,9.67,0,0,1-1.59.05,3.36,3.36,0,0,0-.41-1.34c.58,0,1.1,0,1.34,0a.44.44,0,0,0,.44-.22c.27-.35.37-2.07.44-6.55h-3c-.2.39-.41.76-.63,1.1h2.8v4.21h-2v.66H101V80.87A10.21,10.21,0,0,0,99.91,80a8.88,8.88,0,0,0,1.69-3.79l1.42.31c-.12.49-.27,1-.43,1.47h3.74Zm-4.15,3v1.85h.87V81.61Z"/><path class="cls-3" d="M100,90.92c-.08.25-.2.55-.32.85h5a7.59,7.59,0,0,0,1.21-.09v1.59c-.43,0-1,0-1.21,0h-1.62c-.22,3.1-1.43,5.17-3.53,6.49l-1.58-1a4.25,4.25,0,0,0,1.1-.64,6.24,6.24,0,0,0,2.39-4.8H99a10,10,0,0,1-1.88,2.45l-1.47-.89a9.09,9.09,0,0,0,2-2.39,7.8,7.8,0,0,0,.67-1.59,4.85,4.85,0,0,0,.25-1.2l1.79.35C100.25,90.26,100.09,90.67,100,90.92Z"/><path class="cls-3" d="M101.64,111.17h2.51v-2.11h1.39V113h-1.39v-.52h-6.3V113H96.46v-4h1.39v2.1h2.35v-2.61H95.58v-1.29h1.59v-4.9l1.09.2a47.19,47.19,0,0,0,6-.71l.89,1.14a51.41,51.41,0,0,1-6.54.7v.8h7.28v1.26h-2v1.51h2.52v1.29h-4.74Zm-3.07-3.9h3.87v-1.51H98.57Z"/><path class="cls-3" d="M102.65,116.2l1.23-1a22.26,22.26,0,0,1,2.57,2.57l-1.26,1.08A22.45,22.45,0,0,0,102.65,116.2Z"/><path class="cls-3" d="M99.37,122.7A18.88,18.88,0,0,1,98.26,125v8.4H96.9v-6.35a11.26,11.26,0,0,1-1,1.13,10.14,10.14,0,0,0-.76-1.45,12.58,12.58,0,0,0,2.9-4.47Zm7.17,4.34h-.73v3.3h-1.38v-.58H102.5a5.39,5.39,0,0,1-2.94,3.73,5.63,5.63,0,0,0-1-1.08,4.2,4.2,0,0,0,2.46-2.65H99.34v-1.32h2c0-.34,0-.66,0-1V127h-2.6v-1.32h2.6v-1.39H99.45V123h6.36v2.71h.73Zm-2.11,0h-1.69v.43c0,.32,0,.63,0,1h1.72Zm-1.69-1.32h1.69v-1.39h-1.69Z"/><path class="cls-3" d="M103.46,140.6a5.45,5.45,0,0,0,3.23,4.72,9.08,9.08,0,0,0-.89,1.27,6.17,6.17,0,0,1-3.06-3.82,6.28,6.28,0,0,1-3.38,3.82,6.27,6.27,0,0,0-.84-1.21,5.5,5.5,0,0,0,3.5-4.77v-1.78h-.63a11.89,11.89,0,0,1-1.19,2.37,6.44,6.44,0,0,0-.8-.54v2.64H97.07v1H95.8v-7.94h3.6v3.17a14.06,14.06,0,0,0,1.38-4.12l1.51.28c-.12.59-.28,1.16-.45,1.73h3.51l.22-.05,1.05.24c-.27,1.24-.63,2.61-.94,3.53l-1.26-.3c.16-.53.35-1.29.51-2.06h-1.47Zm-5.36-2.87h-1V142h1Z"/><path class="cls-3" d="M105.89,151.52v8.14H104.4v-.75H97.59v.79H96.12v-8.16h1.47v5.89h2.6V149h1.49v8.47h2.72v-5.91Z"/></g></svg>