<svg xmlns="http://www.w3.org/2000/svg" viewBox="0 0 14 14"><defs><style>.cls-1{fill:#50a135;}</style></defs><g id="石ログ"><circle class="cls-1" cx="8.78" cy="7.9" r="2.52" transform="translate(0.34 16.16) rotate(-86.34)"/><path class="cls-1" d="M13,4.26l-.55-.18a1.24,1.24,0,0,1-.81-.88l-.14-.58a1,1,0,0,0-.89-.69H6.92a1,1,0,0,0-.88.7l-.11.48a1.25,1.25,0,0,1-1,.95,9.32,9.32,0,0,1-1.08.08H3.56a.5.5,0,0,0-.49-.5H1.53a.51.51,0,0,0-.5.5H1A1.11,1.11,0,0,0,0,5.25V11a1.11,1.11,0,0,0,1.11,1.11H12.89A1.11,1.11,0,0,0,14,11V5.71A1.63,1.63,0,0,0,13,4.26ZM4.1,10.75a.45.45,0,1,1-.9,0v-5a.45.45,0,0,1,.9,0Zm4.68.75a3.6,3.6,0,1,1,3.6-3.6A3.6,3.6,0,0,1,8.78,11.5Z"/></g></svg>