<svg xmlns="http://www.w3.org/2000/svg" viewBox="0 0 14 14"><defs><style>.cls-1{fill:#50a135;}</style></defs><g id="石ログ"><path class="cls-1" d="M3,.17V1.86a30.7,30.7,0,0,1-2.6,8.93L0,11.58H3v2.25H14V.17Zm.65,4.39C3.8,4,3.91,3.43,4,3h8.33c-.09.78-.21,1.71-.36,2.64a28.09,28.09,0,0,1-.68,3.33c-.34,1.22-.61,1.52-.68,1.57H1.77A26.94,26.94,0,0,0,3.68,4.56Zm.42,8.19V11.58h6.55c.82,0,1.26-1,1.54-1.95a23.83,23.83,0,0,0,.74-3.27v6.39Z"/><path class="cls-1" d="M8.09,4.13H7.47a.23.23,0,0,0-.17.08,1.46,1.46,0,0,1-1,.56.23.23,0,0,0-.18.16L6,5.38a.12.12,0,0,0,.12.16h.69L5.93,9.22a.13.13,0,0,0,.13.16h.8a.21.21,0,0,0,.2-.16L8.21,4.29A.12.12,0,0,0,8.09,4.13Z"/></g></svg>