<svg xmlns="http://www.w3.org/2000/svg" viewBox="0 0 109.32 172"><defs><style>.cls-1{fill:#50a135;}.cls-2{fill:#3e3a39;}.cls-3{fill:#5eb7e8;}.cls-4{fill:none;}</style></defs><g id="指示レイヤー"><path class="cls-1" d="M82.23,1.56V37.35H77.16v-2H53.48v2H48.64V1.56ZM77.16,31v-25H53.48V31Zm-1.4-6.2v3.88H55V24.76h8V20h-6.6V16h6.6V12.28h-7.6V8.12H75.12v4.16H67.48V16h6.76v4H72a30.87,30.87,0,0,1,3,3.56L73,24.76Zm-8.28,0h4a30.45,30.45,0,0,0-2.72-3.48L71.2,20H67.48Z"/><path class="cls-1" d="M82,75.92c0,2.55-.52,3.87-2.2,4.63s-4.19.84-7.75.84a15.6,15.6,0,0,0-1.56-4.72c2.36.12,5,.08,5.8.08s1-.24,1-1v-6l-3.92,3a83.66,83.66,0,0,0-7.52-8.36,20.76,20.76,0,0,1-8.6,9.2,19.36,19.36,0,0,0-3.32-3.52V81.43H49.12V50.64H63V44H68v6.64H82ZM53.88,70C61.44,66.12,62.8,60.2,63,55.28H53.88Zm14-14.76a30.32,30.32,0,0,1-.56,4.52,104.41,104.41,0,0,1,9.88,9.92V55.28Z"/><path class="cls-1" d="M16.64,16.24c-.2,12.92-.4,17.67-1.4,19.15a3.66,3.66,0,0,1-2.6,1.68,24.93,24.93,0,0,1-4.12.16A11.37,11.37,0,0,0,7.36,33c1.24.12,2.28.16,2.92.16a1.14,1.14,0,0,0,1.12-.6c.56-.84.76-4.23.92-13.87H9.44c-.12,6.12-1.12,13-5.56,18.79A19.52,19.52,0,0,0,.36,34.55c4.4-5.79,5-12.59,5-17.91V10.48H1.24V6.08h6V0H11.8V6.08h5.92v3A27.54,27.54,0,0,0,21.48,0l4.68.88C25.84,2.2,25.44,3.52,25,4.8H37.43V9.12H23.16a24.29,24.29,0,0,1-4.08,6,27.17,27.17,0,0,0-3.88-3,11.32,11.32,0,0,0,1.48-1.6H9.48V14.4h7.16Zm21.91,3.32a71.41,71.41,0,0,1-6.16,5.08c1.4,3.72,3.44,6.76,6.32,8.59a16.71,16.71,0,0,0-3.24,4c-5.27-3.84-7.71-10.79-9.15-19.39l-1.4.6V37.31H20.4V20.08l-.84.24a21.65,21.65,0,0,0-2.8-4c5.64-1.12,12.8-4,16.36-6.8L36.51,12a37.46,37.46,0,0,1-6.31,4c.24,1.56.55,3.12.92,4.6a36.48,36.48,0,0,0,4.07-4.12Z"/><path class="cls-1" d="M15.76,54.4a53.05,53.05,0,0,1-4.28,6.12V81.39H6.72V65.76c-1.12,1.08-2.2,2.08-3.28,3A46.87,46.87,0,0,0,.2,64.6a39,39,0,0,0,11-12Zm-1.48-8.52a53.7,53.7,0,0,1-11,10.52A27.66,27.66,0,0,0,.64,52.52a35.58,35.58,0,0,0,9-8.52ZM37.79,61.8H32.32v14c0,2.56-.49,3.88-2.24,4.6s-4.24.8-7.8.8a20.23,20.23,0,0,0-1.44-4.84c2.28.12,4.92.12,5.64.08s1-.16,1-.76V61.8H15.68V57.28H37.79Zm-1-11H17.36V46.28H36.79Z"/><path class="cls-1" d="M.8,94.6H17.16v3.76H.8Zm14.64,28.64H6.72v1.55H2.6V111.16H15.44ZM2.72,100.16H15.56v3.64H2.72Zm0,5.48H15.56v3.56H2.72Zm13-12.8H3v-3.6H15.68Zm-9,22.08v4.6h4.56v-4.6Zm24.83,5.6c1.8,0,2.08-.92,2.37-5.92a14.1,14.1,0,0,0,4.39,1.84c-.6,6.64-1.88,8.56-6.39,8.56h-6.6c-5,0-6.52-1.32-6.52-6.44V102.88H31.44V94.52H18.72V90H36.19v19.36H31.44v-2h-7.8v11.16c0,1.68.32,2,2.2,2Z"/><path class="cls-1" d="M16.12,162.44c2-1.16,4.64-2.84,7.24-4.56l1.44,3.6c-2.36,1.8-4.92,3.64-7.2,5.2l-1.32-2.28.12,1.16c-5,1-10.24,2.16-14.28,2.92l-.88-4.32c1.68-.24,3.68-.56,5.88-.92V152.8H1.68v-4H7.12v-2.92H3.6v-1.8c-.24.24-.52.48-.76.72A13,13,0,0,0,0,141.72,25.56,25.56,0,0,0,6.92,132h3.92a39.75,39.75,0,0,1,6.68,6.88l-2.52,3h.36v4H11.24v2.92h5v4h-5v9.68l4.8-.84Zm-11-8.12a45.69,45.69,0,0,1,1.4,6.88l-3.2.88a36.4,36.4,0,0,0-1.24-7Zm9-12.4a37.19,37.19,0,0,0-4.56-5.48,37.8,37.8,0,0,1-3.88,5.48Zm-2.4,18.56a49,49,0,0,0,1.4-6.48l3.44.84c-.72,2.24-1.36,4.8-2,6.44ZM31.48,156a18.42,18.42,0,0,0,7.31,7.44,17.67,17.67,0,0,0-3,3.92,20.11,20.11,0,0,1-6.55-7.72v5.24c0,2-.28,3.12-1.52,3.76s-2.8.75-5,.75a16.28,16.28,0,0,0-1.12-4.11c1.12.08,2.32,0,2.72,0s.56-.12.56-.52V149.08H16.56v-4H30.48v-2H19.36v-3.6H30.48v-2.16h-12v-3.92h16.4V145h2.95v4H29.2v1.32a26.79,26.79,0,0,0,1.63,4.28,32.67,32.67,0,0,0,3.6-4.8l3.72,2.28c-1.6,1.84-3.4,3.72-4.8,5Zm-11.6-5.48a19.54,19.54,0,0,1,4.12,5l-3.32,2.2a22.87,22.87,0,0,0-3.92-5.24Z"/><path class="cls-2" d="M82.23,1.56V37.35H77.16v-2H53.48v2H48.64V1.56ZM77.16,31v-25H53.48V31Zm-1.4-6.2v3.88H55V24.76h8V20h-6.6V16h6.6V12.28h-7.6V8.12H75.12v4.16H67.48V16h6.76v4H72a30.87,30.87,0,0,1,3,3.56L73,24.76Zm-8.28,0h4a30.45,30.45,0,0,0-2.72-3.48L71.2,20H67.48Z"/><path class="cls-2" d="M82,75.92c0,2.55-.52,3.87-2.2,4.63s-4.19.84-7.75.84a15.6,15.6,0,0,0-1.56-4.72c2.36.12,5,.08,5.8.08s1-.24,1-1v-6l-3.92,3a83.66,83.66,0,0,0-7.52-8.36,20.76,20.76,0,0,1-8.6,9.2,19.36,19.36,0,0,0-3.32-3.52V81.43H49.12V50.64H63V44H68v6.64H82ZM53.88,70C61.44,66.12,62.8,60.2,63,55.28H53.88Zm14-14.76a30.32,30.32,0,0,1-.56,4.52,104.41,104.41,0,0,1,9.88,9.92V55.28Z"/><path class="cls-2" d="M16.64,16.24c-.2,12.92-.4,17.67-1.4,19.15a3.66,3.66,0,0,1-2.6,1.68,24.93,24.93,0,0,1-4.12.16A11.37,11.37,0,0,0,7.36,33c1.24.12,2.28.16,2.92.16a1.14,1.14,0,0,0,1.12-.6c.56-.84.76-4.23.92-13.87H9.44c-.12,6.12-1.12,13-5.56,18.79A19.52,19.52,0,0,0,.36,34.55c4.4-5.79,5-12.59,5-17.91V10.48H1.24V6.08h6V0H11.8V6.08h5.92v3A27.54,27.54,0,0,0,21.48,0l4.68.88C25.84,2.2,25.44,3.52,25,4.8H37.43V9.12H23.16a24.29,24.29,0,0,1-4.08,6,27.17,27.17,0,0,0-3.88-3,11.32,11.32,0,0,0,1.48-1.6H9.48V14.4h7.16Zm21.91,3.32a71.41,71.41,0,0,1-6.16,5.08c1.4,3.72,3.44,6.76,6.32,8.59a16.71,16.71,0,0,0-3.24,4c-5.27-3.84-7.71-10.79-9.15-19.39l-1.4.6V37.31H20.4V20.08l-.84.24a21.65,21.65,0,0,0-2.8-4c5.64-1.12,12.8-4,16.36-6.8L36.51,12a37.46,37.46,0,0,1-6.31,4c.24,1.56.55,3.12.92,4.6a36.48,36.48,0,0,0,4.07-4.12Z"/><path class="cls-2" d="M15.76,54.4a53.05,53.05,0,0,1-4.28,6.12V81.39H6.72V65.76c-1.12,1.08-2.2,2.08-3.28,3A46.87,46.87,0,0,0,.2,64.6a39,39,0,0,0,11-12Zm-1.48-8.52a53.7,53.7,0,0,1-11,10.52A27.66,27.66,0,0,0,.64,52.52a35.58,35.58,0,0,0,9-8.52ZM37.79,61.8H32.32v14c0,2.56-.49,3.88-2.24,4.6s-4.24.8-7.8.8a20.23,20.23,0,0,0-1.44-4.84c2.28.12,4.92.12,5.64.08s1-.16,1-.76V61.8H15.68V57.28H37.79Zm-1-11H17.36V46.28H36.79Z"/><path class="cls-2" d="M.8,94.6H17.16v3.76H.8Zm14.64,28.64H6.72v1.55H2.6V111.16H15.44ZM2.72,100.16H15.56v3.64H2.72Zm0,5.48H15.56v3.56H2.72Zm13-12.8H3v-3.6H15.68Zm-9,22.08v4.6h4.56v-4.6Zm24.83,5.6c1.8,0,2.08-.92,2.37-5.92a14.1,14.1,0,0,0,4.39,1.84c-.6,6.64-1.88,8.56-6.39,8.56h-6.6c-5,0-6.52-1.32-6.52-6.44V102.88H31.44V94.52H18.72V90H36.19v19.36H31.44v-2h-7.8v11.16c0,1.68.32,2,2.2,2Z"/><path class="cls-2" d="M16.12,162.44c2-1.16,4.64-2.84,7.24-4.56l1.44,3.6c-2.36,1.8-4.92,3.64-7.2,5.2l-1.32-2.28.12,1.16c-5,1-10.24,2.16-14.28,2.92l-.88-4.32c1.68-.24,3.68-.56,5.88-.92V152.8H1.68v-4H7.12v-2.92H3.6v-1.8c-.24.24-.52.48-.76.72A13,13,0,0,0,0,141.72,25.56,25.56,0,0,0,6.92,132h3.92a39.75,39.75,0,0,1,6.68,6.88l-2.52,3h.36v4H11.24v2.92h5v4h-5v9.68l4.8-.84Zm-11-8.12a45.69,45.69,0,0,1,1.4,6.88l-3.2.88a36.4,36.4,0,0,0-1.24-7Zm9-12.4a37.19,37.19,0,0,0-4.56-5.48,37.8,37.8,0,0,1-3.88,5.48Zm-2.4,18.56a49,49,0,0,0,1.4-6.48l3.44.84c-.72,2.24-1.36,4.8-2,6.44ZM31.48,156a18.42,18.42,0,0,0,7.31,7.44,17.67,17.67,0,0,0-3,3.92,20.11,20.11,0,0,1-6.55-7.72v5.24c0,2-.28,3.12-1.52,3.76s-2.8.75-5,.75a16.28,16.28,0,0,0-1.12-4.11c1.12.08,2.32,0,2.72,0s.56-.12.56-.52V149.08H16.56v-4H30.48v-2H19.36v-3.6H30.48v-2.16h-12v-3.92h16.4V145h2.95v4H29.2v1.32a26.79,26.79,0,0,0,1.63,4.28,32.67,32.67,0,0,0,3.6-4.8l3.72,2.28c-1.6,1.84-3.4,3.72-4.8,5Zm-11.6-5.48a19.54,19.54,0,0,1,4.12,5l-3.32,2.2a22.87,22.87,0,0,0-3.92-5.24Z"/><path class="cls-3" d="M98.74,6.22a15.51,15.51,0,0,1-2,5.33,12.44,12.44,0,0,0-1.39-.74,11.57,11.57,0,0,0,1.81-4.87Zm3.06-3v9.24c0,.88-.21,1.27-.73,1.5a7.31,7.31,0,0,1-2.55.28A6.58,6.58,0,0,0,98,12.74c.78,0,1.67,0,1.93,0s.36-.08.36-.31V3.21Zm2.71,2.6a20.93,20.93,0,0,1,2.25,5.37l-1.56.61a20.51,20.51,0,0,0-2.1-5.45Z"/><path class="cls-3" d="M106.38,17.43v1.22h-2a8.23,8.23,0,0,1,.64,1.15l-1.3.48a8.83,8.83,0,0,0-.87-1.63h-.48a9.78,9.78,0,0,1-1,1.28h.28v1h4.15v1.29h-9.7V20.93h4.1v-1h.81c-.3-.23-.74-.5-1-.66a5.18,5.18,0,0,0,.62-.62H99.12a6.51,6.51,0,0,1,.49,1.16l-1.24.49a10.4,10.4,0,0,0-.67-1.65h-.12a10.56,10.56,0,0,1-1.14,1.71,9.8,9.8,0,0,0-1.22-.78,8.76,8.76,0,0,0,2-3.44l1.36.34a8.07,8.07,0,0,1-.37.95h2.77v.89a7.61,7.61,0,0,0,1.13-2.17l1.39.34c-.11.31-.24.64-.38.94Zm-2.27,5.22c-.35,1.08-.75,2.24-1.13,3.13h3.36v1.34H95.6V25.78h5.85a21.4,21.4,0,0,0,1.14-3.5Zm-5-.34a12.44,12.44,0,0,1,.93,3l-1.45.42a12.77,12.77,0,0,0-.84-3Z"/><path class="cls-3" d="M102.67,36.6v2.65c0,.65-.11,1-.56,1.19a5.16,5.16,0,0,1-1.92.2,5,5,0,0,0-.4-1.26c.53,0,1.11,0,1.28,0s.22,0,.22-.18V36.6H98.55V32.09h2.38a6.79,6.79,0,0,0,.11-.83H97.75v2.26c0,2-.16,5.12-1.22,7.1a5,5,0,0,0-1.26-.71c1-1.84,1.08-4.52,1.08-6.39V30h10v1.29h-3.58l-.25.82h3V36.6Zm-2,.77a9.18,9.18,0,0,1-2.32,2.74,9.16,9.16,0,0,0-1.17-.84A6.18,6.18,0,0,0,99.28,37Zm-.72-3.53H104v-.68H99.94Zm0,1.69H104v-.7H99.94Zm4.41,1.39a14.44,14.44,0,0,1,2.22,2.34l-1.18.77a12.38,12.38,0,0,0-2.13-2.43Z"/><path class="cls-3" d="M102.65,43.8l1.23-1a22.2,22.2,0,0,1,2.57,2.56l-1.26,1.08A22.34,22.34,0,0,0,102.65,43.8Z"/><path class="cls-3" d="M105.07,59.48c.29,0,.34-.31.39-1.82a4.31,4.31,0,0,0,1.34.62c-.13,1.94-.49,2.58-1.6,2.58H104c-1.17,0-1.55-.42-1.55-2V54.2h-2.17c-.28,2.92-1.16,5.34-4,6.84a4.37,4.37,0,0,0-1-1.15c2.47-1.26,3.23-3.23,3.47-5.69H95.88V52.76h3c0-.87,0-1.8,0-2.77h1.56c0,.95,0,1.89,0,2.77h3.56v6.13c0,.51,0,.59.32.59Z"/><path class="cls-3" d="M97.4,66.26a12.33,12.33,0,0,1-.92,3.52l-1.23-.51A10,10,0,0,0,96.17,66Zm2.66-.08a14.13,14.13,0,0,1,1,3l-1.21.57a13.83,13.83,0,0,0-.68-2.63c0,2.47-.3,5.19-2.56,7.08a5.49,5.49,0,0,0-1-1.12c2-1.64,2.18-4,2.18-6.08V63.24h1.41v3.32Zm5.85-3V74.11h-1.43v-5l-1.06.59a13.38,13.38,0,0,0-1-2.66v6.44h-1.39V63.51h1.39v3l.88-.43a14.81,14.81,0,0,1,1.16,2.62V63.19Z"/><path class="cls-3" d="M99.15,79.55a3.7,3.7,0,0,1,2.2-3.26l.82,1.27a2.34,2.34,0,0,0-1.54,2,2.23,2.23,0,0,0,.87,1.79,3.64,3.64,0,0,1,1.32,2.83,3.7,3.7,0,0,1-2.21,3.26l-.82-1.27a2.34,2.34,0,0,0,1.54-2,2.19,2.19,0,0,0-.86-1.79A3.63,3.63,0,0,1,99.15,79.55Z"/><path class="cls-3" d="M105.92,91.51v6h-1.5v-.6h-2.71v3.74H100.2V96.9H97.5v.66H96.06v-6h4.14V89.44h1.51v2.07Zm-5.72,4V92.92H97.5v2.57Zm4.22,0V92.92h-2.71v2.57Z"/><path class="cls-3" d="M106,103.1v10.74h-1.53v-.6h-7.1v.6H95.93V103.1Zm-1.53,8.82v-7.51h-7.1v7.51Zm-.42-1.86v1.16H97.85v-1.16h2.41v-1.41h-2v-1.2h2v-1.13H98v-1.25h5.89v1.25h-2.29v1.13h2v1.2H103a9.63,9.63,0,0,1,.9,1.06l-.63.35Zm-2.48,0h1.2a8.48,8.48,0,0,0-.82-1l.74-.37h-1.12Z"/><path class="cls-3" d="M100.65,116c-.09.39-.24,1-.41,1.61a14.2,14.2,0,0,0,1.58-.37l.05,1.37a16.58,16.58,0,0,1-2.05.4,21,21,0,0,1-2.52,5l-1.43-.73a18.49,18.49,0,0,0,2.39-4.15h-.6l-1.48,0-.1-1.38a14.48,14.48,0,0,0,1.57.08c.35,0,.7,0,1,0a10,10,0,0,0,.33-2Zm2.77,3.66c0,.5,0,1,0,1.51,0,.34,0,.91.08,1.49a8,8,0,0,1,2.43,1.5l-.79,1.27a10.62,10.62,0,0,0-1.58-1.26v.12c0,1.09-.59,1.94-2.27,1.94-1.46,0-2.63-.66-2.63-2,0-1.14,1-2,2.62-2a7,7,0,0,1,.8,0c0-.88-.1-1.91-.13-2.63Zm-1.31,3.9a3.64,3.64,0,0,0-1-.12c-.67,0-1.13.29-1.13.69s.39.75,1,.75c.81,0,1.06-.45,1.06-1.09Zm3.32-3.28a16.65,16.65,0,0,0-2.83-1.66l.76-1.17a23,23,0,0,1,2.91,1.6Z"/><path class="cls-3" d="M100.15,132.18c.87-.5,1.69-.92,2.25-1.25a6.64,6.64,0,0,0,1.09-.71l.74,1.4c-.37.21-.74.4-1.16.62a30,30,0,0,0-2.94,1.57c-1,.65-1.62,1.32-1.62,2.14s.82,1.29,2.45,1.29a19.36,19.36,0,0,0,3.83-.42v1.69a21.38,21.38,0,0,1-3.78.3c-2.35,0-4.12-.66-4.12-2.68a3.93,3.93,0,0,1,2-3.1c-.52-1-1.1-2.27-1.63-3.5l1.48-.61A30.22,30.22,0,0,0,100.15,132.18Zm5.15-1.82-.94.4a15.67,15.67,0,0,0-.93-1.64l.95-.38C104.66,129.17,105.08,129.91,105.3,130.36Zm1.41-.55-.93.4a13.19,13.19,0,0,0-1-1.62l.92-.38A12.09,12.09,0,0,1,106.71,129.81Z"/><path class="cls-3" d="M100.65,141.53c-.09.38-.24,1-.41,1.61a14.2,14.2,0,0,0,1.58-.37l.05,1.36a16.41,16.41,0,0,1-2.05.41,21.22,21.22,0,0,1-2.52,5l-1.43-.73a18.71,18.71,0,0,0,2.39-4.15h-.6c-.49,0-1,0-1.48,0l-.1-1.38a14.6,14.6,0,0,0,1.57.09c.35,0,.7,0,1,0a10.26,10.26,0,0,0,.33-2Zm2.77,3.66c0,.5,0,1,0,1.51,0,.33,0,.91.08,1.49a8,8,0,0,1,2.43,1.5l-.79,1.27a9.48,9.48,0,0,0-1.58-1.26v.12c0,1.09-.59,1.94-2.27,1.94-1.46,0-2.63-.66-2.63-1.95s1-2,2.62-2c.27,0,.54,0,.8,0,0-.87-.1-1.9-.13-2.62Zm-1.31,3.9a3.26,3.26,0,0,0-1-.12c-.67,0-1.13.28-1.13.69s.39.74,1,.74c.81,0,1.06-.44,1.06-1.09Zm3.32-3.28a16.7,16.7,0,0,0-2.83-1.67l.76-1.16a20.77,20.77,0,0,1,2.91,1.6Z"/><path class="cls-3" d="M100.15,157.72c.87-.51,1.69-.93,2.25-1.25a7.36,7.36,0,0,0,1.09-.71l.74,1.39c-.37.22-.74.41-1.16.63a28,28,0,0,0-2.94,1.57c-1,.64-1.62,1.32-1.62,2.13s.82,1.3,2.45,1.3a19.36,19.36,0,0,0,3.83-.42v1.69a21.38,21.38,0,0,1-3.78.3c-2.35,0-4.12-.66-4.12-2.69a3.92,3.92,0,0,1,2-3.09c-.52-1-1.1-2.27-1.63-3.51l1.48-.61A29.58,29.58,0,0,0,100.15,157.72Zm5.15-1.83-.94.41a14.71,14.71,0,0,0-.93-1.64l.95-.39C104.66,154.71,105.08,155.45,105.3,155.89Zm1.41-.55-.93.41a12.48,12.48,0,0,0-1-1.62l.92-.38A12,12,0,0,1,106.71,155.34Z"/><rect class="cls-4" x="-0.34" y="5.68" width="109.32" height="172"/></g></svg>